<svg height="240" viewBox="0 0 240 240" width="240" xmlns="http://www.w3.org/2000/svg"><g fill="none"><path d="m0 0h239.577465v239.577465h-239.577465z" fill="#e60012"/><path d="m129.971831 142.056338h16.56338c15.211268 0 27.549296-12.338028 27.549296-27.549296v-52.3943659c0-15.2112676-12.338028-27.5492958-27.549296-27.5492958h-16.647887c-.422535 0-.676056.3380282-.676056.6760563v106.0563384c0 .422535.338028.760563.760563.760563zm20.450704-59.2394366c6 0 10.901409 4.9014085 10.901409 10.9014085s-4.901409 10.9014081-10.901409 10.9014081-10.901408-4.9014081-10.901408-10.9014081c.084507-6 4.901408-10.9014085 10.901408-10.9014085zm-32.788732-48.2535211h-23.4929579c-15.2112676 0-27.5492958 12.3380282-27.5492958 27.5492958v52.3943659c0 15.211268 12.3380282 27.549296 27.5492958 27.549296h23.4929579c.422535 0 .760563-.338028.760563-.760563v-105.9718313c0-.4225352-.338028-.7605634-.760563-.7605634zm-7.859155 98.8732397h-15.6338029c-5.0704226 0-9.8028169-1.943662-13.3521127-5.577465-3.5492958-3.549296-5.5774648-8.28169-5.5774648-13.352113v-52.3943659c0-5.0704226 1.943662-9.8028169 5.5774648-13.3521127 3.5492958-3.5492958 8.2816901-5.5774648 13.3521127-5.5774648h15.6338029zm-26.4507043-66.5915496c0 5.5774648 4.5633802 10.1408451 10.140845 10.1408451s10.1408453-4.5633803 10.1408453-10.1408451-4.5633805-10.140845-10.1408453-10.140845c-5.6619718 0-10.140845 4.4788732-10.140845 10.140845zm-39.5492958 96.0845066 6.6760563 8.957747h2.6197183v-13.43662h-2.7042253v8.87324l-6.5915493-8.788733h-2.7042254v13.43662h2.7042254zm65.5774651-4.478873h-11.408451v2.87324h4.309859v10.56338h2.87324v-10.56338h4.225352zm-.845071 45.71831h5.661972v-25.352113h-5.661972zm-29.4084505-41.239437 6.6760564 8.957747h2.6197183v-13.43662h-2.7042254v8.87324l-6.5915493-8.788733h-2.7042253v13.43662h2.7042253zm12.7605634 34.225353-5.4084507-18.422536h-4.4788732l-5.3239437 18.338029-4.9014084-18.338029h-5.4929578l7.1830986 25.352113h6.0845071l4.7323943-16.732394 4.7323944 16.732394h6.084507l7.1830985-25.352113h-5.4929576zm-40.3098591-8.450705c-3.6338028-.591549-6-1.267605-6-2.957746 0-1.943662 2.6197183-2.704225 6.1690141-2.704225 3.2957746 0 6.5915493 1.267605 7.7746478 1.774647l1.7746479-4.394366c-1.2676056-.507042-5.3239436-1.943662-9.8028169-1.943662-5.4929577 0-11.3239436 2.704226-11.3239436 7.605634 0 3.971831 2.7887324 6.084507 10.056338 7.352113 5.1549296.84507 7.943662 1.352112 7.8591549 3.549295-.084507 1.183099-1.0140845 3.211268-6.7605634 3.211268-4.6478873 0-7.9436619-1.690141-9.0422535-2.366197l-2.3661972 4.309859c1.2676057.676056 5.5774648 2.704225 11.0704226 2.704225 8.028169 0 12.3380281-2.788732 12.3380281-8.112676 0-3.042253-1.0140845-6.253521-11.7464788-8.028169zm14.7042253-30.253521h-2.9577465v13.43662h2.9577465zm86.5352109 13.43662v-13.43662h-2.704225v8.87324l-6.591549-8.788733h-2.704226v13.43662h2.704226v-8.957746l6.676056 8.957746h2.619718zm-23.154929-2.450704h-7.690141v-3.126761h7.098592v-2.450704h-7.098592v-2.87324h7.690141v-2.450704h-10.478873v13.43662h10.478873zm71.492958 31.690141h1.183098v3.042253h.760564v-3.042253h1.098591v-.760564h-3.042253zm-8.619719-43.098592c-3.971831 0-7.183098 3.211268-7.183098 7.183099s3.211267 7.183098 7.183098 7.183098 7.183099-3.211267 7.183099-7.183098c-.084507-3.971831-3.295775-7.183099-7.183099-7.183099zm0 11.323944c-2.28169 0-4.140845-1.859155-4.140845-4.140845 0-2.281691 1.859155-4.140845 4.140845-4.140845s4.140845 1.859154 4.140845 4.140845c0 2.28169-1.859155 4.140845-4.140845 4.140845zm15.464789 31.014084-.929577 2.788733-.929578-2.788733h-1.014084v3.802817h.676056v-2.873239l1.014084 2.873239h.676057l1.014084-2.873239v2.873239h.676057v-3.802817zm-14.619718-11.577465h-11.830986v-9.971831h-5.239437v25.352113h5.239437v-10.140845h11.830986v10.140845h5.239436v-25.352113h-5.239436zm-73.014085-4.647887h8.112676v19.943662h5.492958v-19.943662h7.943662v-5.408451h-21.464789v5.408451zm39.126761-.507042c2.873239 0 5.492957 1.521127 6.929577 3.971831l4.140845-3.549296c-2.535211-3.71831-6.676056-6-11.239436-6-7.43662 0-13.521127 6.084507-13.521127 13.521127s6.084507 13.521127 13.521127 13.521127c4.56338 0 8.704225-2.197184 11.239436-6l-4.140845-3.549296c-1.43662 2.366197-4.056338 3.971831-6.929577 3.971831-4.394366 0-8.028169-3.549296-8.028169-7.859155 0-4.56338 3.549295-8.028169 8.028169-8.028169zm10.225352-25.183099h-5.577465v13.43662h5.577465c3.802817 0 6.929577-3.042254 6.929577-6.676056 0-3.71831-3.12676-6.760564-6.929577-6.760564zm.169014 10.647888h-2.957747v-7.774648h2.957747c2.112676 0 3.887324 1.774648 3.887324 3.887324s-1.774648 3.887324-3.887324 3.887324z" fill="#fff"/></g></svg>